# xmcd CD database file
#
# Track frame offsets:
#	150
#	33975
#	69375
#	73478
#
# Disc length: 1574 seconds
#
# Revision: 0
# Processed by: cddbd v1.5.2PL0 Copyright (c) Steve Scherf et al.
# Submitted via: CDex 1.70beta2
#
DISCID=37062404
DTITLE=Lands - Emperor E,P
DYEAR=2011
DGENRE=Sludge Metal
TTITLE0=Emperor
TTITLE1=King Of Nothing 
TTITLE2=Never Look Back (Interlude)
TTITLE3=Love Is The Devil
EXTD=YEAR: 2011
EXTT0=
EXTT1=
EXTT2=
EXTT3=
PLAYORDER=
